<?xml version="1.0" standalone="no"?>
<!DOCTYPE svg PUBLIC "-//W3C//DTD SVG 20010904//EN"
 "http://www.w3.org/TR/2001/REC-SVG-20010904/DTD/svg10.dtd">
<svg version="1.0" xmlns="http://www.w3.org/2000/svg"
 width="400.000000pt" height="400.000000pt" viewBox="0 0 400.000000 400.000000"
 preserveAspectRatio="xMidYMid meet">

<g transform="translate(0.000000,400.000000) scale(0.100000,-0.100000)"
fill="#000000" stroke="none">
<path d="M1746 3645 c-242 -39 -463 -127 -667 -263 -366 -245 -615 -614 -711
-1055 -19 -89 -22 -131 -22 -327 0 -196 3 -238 22 -327 137 -628 597 -1117
1207 -1281 275 -74 621 -69 895 14 104 32 260 96 260 108 0 4 -258 372 -572
817 l-573 808 -5 -407 c-4 -328 -8 -411 -19 -428 -22 -33 -65 -54 -110 -54
-33 0 -49 7 -79 34 l-37 34 -3 629 -2 629 23 35 c26 38 88 66 129 56 13 -4 36
-15 49 -26 13 -10 339 -464 724 -1008 l700 -990 45 31 c81 56 293 276 362 376
159 230 255 478 289 745 17 131 6 414 -20 537 -70 324 -226 611 -457 842 -232
233 -515 386 -841 457 -130 28 -454 35 -587 14z m862 -915 c63 -39 62 -30 62
-670 0 -319 -3 -580 -7 -580 -5 0 -63 78 -130 174 l-123 174 0 406 c0 450 1
459 62 496 18 11 49 20 68 20 19 0 50 -9 68 -20z"/>
</g>
</svg>
